<svg xmlns="http://www.w3.org/2000/svg" width="1200" height="660" viewBox="0 0 1200 660">
<defs><marker id="arrow" viewBox="0 0 10 10" refX="9" refY="5" markerWidth="7" markerHeight="7" orient="auto-start-reverse"><path d="M0 0L10 5L0 10Z" fill="#56745e"/></marker></defs>
<rect width="1200" height="660" fill="#f5f4eb"/><g fill="#234237" font-family="Arial,sans-serif"><text x="48" y="62" font-size="28" font-weight="bold">TraceLearn / local architecture</text><text x="48" y="96" font-size="15">One computer. Inspectable sources. Deterministic practice checks.</text></g>
<g stroke="#d7dfcb" fill="#fffef8" stroke-width="2"><rect x="48" y="140" width="275" height="110" rx="10"/><rect x="462" y="140" width="275" height="110" rx="10"/><rect x="875" y="140" width="275" height="110" rx="10"/><rect x="48" y="380" width="275" height="130" rx="10"/><rect x="462" y="380" width="275" height="130" rx="10"/><rect x="875" y="380" width="275" height="130" rx="10"/></g>
<g fill="#234237" font-family="Arial,sans-serif" font-size="18"><text x="68" y="178" font-weight="bold">React workspace</text><text x="68" y="209" font-size="15">Practice · evidence · notebook</text><text x="482" y="178" font-weight="bold">Node.js / Express</text><text x="482" y="209" font-size="15">127.0.0.1 · local routes</text><text x="895" y="178" font-weight="bold">SQLite</text><text x="895" y="209" font-size="15">Sources · hashes · vectors · history</text><text x="68" y="418" font-weight="bold">Checked response</text><text x="68" y="449" font-size="15">Schema + exact source quotes</text><text x="68" y="478" font-size="15">One retry, then explicit failure</text><text x="482" y="418" font-weight="bold">Qwen3-4B / Ollama</text><text x="482" y="449" font-size="15">Structured local explanation</text><text x="482" y="478" font-size="15">Fixed model and parameters</text><text x="895" y="418" font-weight="bold">Hybrid retrieval</text><text x="895" y="449" font-size="15">Keyword + local Qwen embeddings</text><text x="895" y="478" font-size="15">Five source passages</text></g>
<g stroke="#56745e" stroke-width="2" fill="none" marker-end="url(#arrow)"><path d="M323 195H460"/><path d="M737 195H873"/><path d="M1013 250V378"/><path d="M875 444H739"/><path d="M462 444H325"/><path d="M185 380V252"/></g>
<g fill="#6e7e69" font-family="Arial,sans-serif" font-size="14"><text x="348" y="181">HTTP</text><text x="766" y="181">local storage</text><text x="1030" y="319">retrieve</text><text x="767" y="429">context</text><text x="352" y="429">validate</text><text x="203" y="319">display</text><text x="48" y="580">Curated diagnostic and transfer exercises: fixed answer keys, no generative grading.</text><text x="48" y="610">Imported-source recall: source-derived answer + model-suggested distractors + exact reconstruction.</text></g></svg>
